<svg width="48" height="54" viewBox="0 0 48 54" fill="none" xmlns="http://www.w3.org/2000/svg">
<path fill-rule="evenodd" clip-rule="evenodd" d="M27.6228 10.4741C32.307 10.4741 36.5482 12.3356 39.6096 15.3463L33.3728 21.407L28.2368 16.2683L16.1885 27.1487L19.8728 27.1399L19.9385 36.3861L25.6008 36.4647V32.6763C25.6008 31.8417 26.4429 32.0208 28.2324 32.0427H28.2456H28.2587C30.0482 32.0164 30.8903 31.8417 30.8903 32.6763V36.4647L36.4429 36.3861L39.0614 39.1739C36.0526 41.8743 32.0394 43.5261 27.6315 43.5261C18.2938 43.5261 10.7236 36.1283 10.7236 27.0001C10.7236 17.8719 18.285 10.4741 27.6228 10.4741ZM19.8377 21.7522L22.8333 19.2877L22.8684 17.9549H19.8333V21.7522H19.8377Z" fill="#2b2c86"/>
<path fill-rule="evenodd" clip-rule="evenodd" d="M27.6228 0C35.2763 0 42.2018 3.04127 47.2061 7.95711L43.4912 11.5708C39.4386 7.58569 33.8246 5.12122 27.6228 5.12122C15.2588 5.12122 5.23684 14.9179 5.23684 27C5.23684 39.0821 15.2588 48.8788 27.6228 48.8788C33.4605 48.8788 38.7719 46.694 42.7588 43.1196L46.3026 46.8906C41.386 51.3039 34.8289 54 27.6272 54C12.3684 54 0 41.9136 0 27C0 12.0864 12.3684 0 27.6228 0Z" fill="#E52B0E"/>
</svg>
